<svg width="124" height="184" viewBox="0 0 124 184" fill="none" xmlns="http://www.w3.org/2000/svg">
  <rect width="124" height="184" fill="#401694" />
  <g>
    <circle cx="22.5" cy="26.5" r="3.5" fill="#5559DF" />
    <circle cx="48.5" cy="26.5" r="3.5" fill="#5559DF" />
    <circle cx="74.5" cy="26.5" r="3.5" fill="#5559DF" />
    <circle cx="100.5" cy="26.5" r="3.5" fill="#5559DF" />
    <circle cx="22.5" cy="52.5" r="3.5" fill="#5559DF" />
    <circle cx="48.5" cy="52.5" r="3.5" fill="#5559DF" />
    <circle cx="74.5" cy="52.5" r="3.5" fill="#5559DF" />
    <circle cx="100.5" cy="52.5" r="3.5" fill="#5559DF" />
    <circle cx="22.5" cy="78.5" r="3.5" fill="#5559DF" />
    <circle cx="48.5" cy="78.5" r="3.5" fill="#5559DF" />
    <circle cx="74.5" cy="78.5" r="3.5" fill="#5559DF" />
    <circle cx="100.5" cy="78.5" r="3.5" fill="#5559DF" />
    <circle cx="22.5" cy="104.5" r="3.5" fill="#5559DF" />
    <circle cx="48.5" cy="104.5" r="3.5" fill="#5559DF" />
    <circle cx="74.5" cy="104.5" r="3.5" fill="#5559DF" />
    <circle cx="100.5" cy="104.5" r="3.5" fill="#5559DF" />
    <circle cx="22.5" cy="130.5" r="3.5" fill="#5559DF" />
    <circle cx="48.5" cy="130.5" r="3.5" fill="#5559DF" />
    <circle cx="74.5" cy="130.5" r="3.5" fill="#5559DF" />
    <circle cx="100.5" cy="130.5" r="3.5" fill="#5559DF" />
    <circle cx="22.5" cy="156.5" r="3.5" fill="#5559DF" />
    <circle cx="48.5" cy="156.5" r="3.5" fill="#5559DF" />
    <circle cx="74.5" cy="156.5" r="3.5" fill="#5559DF" />
    <circle cx="100.5" cy="156.5" r="3.5" fill="#5559DF" />
  </g>
</svg>