<svg width="434" height="194" viewBox="0 0 434 194" fill="none" xmlns="http://www.w3.org/2000/svg">
<g clip-path="url(#clip0)">
<path fill-rule="evenodd" clip-rule="evenodd" d="M0 0H434V194H0V0Z" fill="#5A5AD4"/>
<circle cx="235.5" cy="193.5" r="183.5" fill="#00CA71"/>
<circle cx="235.5" cy="193.5" r="128.5" fill="#FFCA00"/>
<circle cx="235.5" cy="193.5" r="90.5" fill="#FF3566"/>
<mask id="path-5-outside-1" maskUnits="userSpaceOnUse" x="49" y="16" width="213" height="273" fill="black">
<rect fill="white" x="49" y="16" width="213" height="273"/>
<path fill-rule="evenodd" clip-rule="evenodd" d="M67 31C67 26.0294 71.0294 22 76 22C80.9706 22 85 26.0294 85 31V32.3888C92.7695 28.3085 101.615 26 111 26C120.385 26 129.23 28.3086 137 32.3888V31C137 26.0294 141.029 22 146 22C150.971 22 155 26.0294 155 31V47.3552C162.515 56.887 167 68.9198 167 82V127.262C174.472 123.882 182.766 122 191.5 122C209.312 122 225.295 129.826 236.199 142.228L240.635 137.957C244.051 134.667 249.487 134.769 252.777 138.186C256.067 141.602 255.964 147.038 252.548 150.328L245.702 156.921C249.105 164.413 251 172.735 251 181.5V223.5C251 256.361 224.361 283 191.5 283C175.613 283 161.18 276.774 150.509 266.628C140.382 276.71 126.419 282.941 111 282.941C80.0721 282.941 55 257.869 55 226.941V81.9999C55 68.9197 59.4846 56.8869 67 47.3552V31Z"/>
</mask>
<path fill-rule="evenodd" clip-rule="evenodd" d="M67 31C67 26.0294 71.0294 22 76 22C80.9706 22 85 26.0294 85 31V32.3888C92.7695 28.3085 101.615 26 111 26C120.385 26 129.23 28.3086 137 32.3888V31C137 26.0294 141.029 22 146 22C150.971 22 155 26.0294 155 31V47.3552C162.515 56.887 167 68.9198 167 82V127.262C174.472 123.882 182.766 122 191.5 122C209.312 122 225.295 129.826 236.199 142.228L240.635 137.957C244.051 134.667 249.487 134.769 252.777 138.186C256.067 141.602 255.964 147.038 252.548 150.328L245.702 156.921C249.105 164.413 251 172.735 251 181.5V223.5C251 256.361 224.361 283 191.5 283C175.613 283 161.18 276.774 150.509 266.628C140.382 276.71 126.419 282.941 111 282.941C80.0721 282.941 55 257.869 55 226.941V81.9999C55 68.9197 59.4846 56.8869 67 47.3552V31Z" fill="#66CCFF"/>
<path d="M85 32.3888H79V42.3167L87.7896 37.7008L85 32.3888ZM137 32.3888L134.21 37.7008L143 42.3167V32.3888H137ZM155 47.3552H149V49.4361L150.288 51.0702L155 47.3552ZM167 127.262H161V136.562L169.473 132.729L167 127.262ZM236.199 142.228L231.694 146.19L235.839 150.905L240.361 146.55L236.199 142.228ZM240.635 137.957L236.473 133.635L240.635 137.957ZM252.777 138.186L257.099 134.024L257.099 134.024L252.777 138.186ZM252.548 150.328L248.386 146.006L252.548 150.328ZM245.702 156.921L241.54 152.599L238.485 155.54L240.239 159.402L245.702 156.921ZM150.509 266.628L154.643 262.279L150.413 258.257L146.276 262.376L150.509 266.628ZM67 47.3552L71.7116 51.0701L73 49.4361V47.3552H67ZM76 16C67.7157 16 61 22.7157 61 31H73C73 29.3431 74.3431 28 76 28V16ZM91 31C91 22.7157 84.2843 16 76 16V28C77.6569 28 79 29.3431 79 31H91ZM91 32.3888V31H79V32.3888H91ZM111 20C100.62 20 90.8197 22.5555 82.2104 27.0767L87.7896 37.7008C94.7194 34.0616 102.61 32 111 32V20ZM139.79 27.0767C131.18 22.5555 121.38 20 111 20V32C119.39 32 127.281 34.0616 134.21 37.7008L139.79 27.0767ZM131 31V32.3888H143V31H131ZM146 16C137.716 16 131 22.7157 131 31H143C143 29.3431 144.343 28 146 28V16ZM161 31C161 22.7157 154.284 16 146 16V28C147.657 28 149 29.3431 149 31H161ZM161 47.3552V31H149V47.3552H161ZM173 82C173 67.5244 168.032 54.1926 159.712 43.6403L150.288 51.0702C156.999 59.5813 161 70.3151 161 82H173ZM173 127.262V82H161V127.262H173ZM169.473 132.729C176.183 129.693 183.636 128 191.5 128V116C181.896 116 172.76 118.071 164.527 121.796L169.473 132.729ZM191.5 128C207.514 128 221.88 135.029 231.694 146.19L240.705 138.266C228.71 124.624 211.109 116 191.5 116V128ZM240.361 146.55L244.797 142.278L236.473 133.635L232.038 137.906L240.361 146.55ZM244.797 142.278C245.826 141.287 247.464 141.318 248.455 142.347L257.099 134.024C251.511 128.221 242.276 128.046 236.473 133.635L244.797 142.278ZM248.455 142.347C249.446 143.377 249.415 145.015 248.386 146.006L256.71 154.65C262.513 149.061 262.687 139.827 257.099 134.024L248.455 142.347ZM248.386 146.006L241.54 152.599L249.864 161.242L256.71 154.65L248.386 146.006ZM240.239 159.402C243.295 166.13 245 173.608 245 181.5H257C257 171.862 254.915 162.695 251.165 154.439L240.239 159.402ZM245 181.5V223.5H257V181.5H245ZM245 223.5C245 253.047 221.047 277 191.5 277V289C227.675 289 257 259.675 257 223.5H245ZM191.5 277C177.212 277 164.244 271.407 154.643 262.279L146.375 270.976C158.117 282.14 174.014 289 191.5 289V277ZM111 288.941C128.069 288.941 143.537 282.036 154.742 270.88L146.276 262.376C137.228 271.384 124.769 276.941 111 276.941V288.941ZM49 226.941C49 261.183 76.7583 288.941 111 288.941V276.941C83.3858 276.941 61 254.555 61 226.941H49ZM49 81.9999V226.941H61V81.9999H49ZM62.2884 43.6402C53.9683 54.1925 49 67.5244 49 81.9999H61C61 70.315 65.0008 59.5813 71.7116 51.0701L62.2884 43.6402ZM61 31V47.3552H73V31H61Z" fill="white" mask="url(#path-5-outside-1)"/>
<circle cx="80.9353" cy="85.9353" r="10" transform="rotate(48.6949 80.9353 85.9353)" fill="white" stroke="white" stroke-width="4"/>
<circle cx="141.164" cy="86.1628" r="10" transform="rotate(152.741 141.164 86.1628)" fill="white" stroke="white" stroke-width="4"/>
<circle cx="76.3507" cy="83.3507" r="4.5" transform="rotate(48.6949 76.3507 83.3507)" fill="#323338"/>
<circle cx="146.061" cy="83.0608" r="4.5" transform="rotate(152.741 146.061 83.0608)" fill="#323338"/>
<path d="M120 102C120 106.971 115.971 111 111 111C106.029 111 102 106.971 102 102" stroke="#323338" stroke-width="4" stroke-linecap="round"/>
</g>
<defs>
<clipPath id="clip0">
<rect width="434" height="194" fill="white"/>
</clipPath>
</defs>
</svg>
